# Blender v2.72 (sub 0) OBJ File: 'compass.blend'
# www.blender.org
o compass
v 2.910993 -1.000000 -1.000000
v 2.910993 -1.000000 1.000000
v -1.661759 -1.000000 1.000000
v -1.661758 -1.000000 -1.000000
v 2.910994 1.000000 -0.999999
v 2.910992 1.000000 1.000001
v -1.661759 1.000000 1.000000
v -1.661759 1.000000 -1.000000
v 4.884073 -0.391700 -0.391699
v 4.884073 -0.391700 0.391701
v 4.884073 0.391700 -0.391699
v 4.884072 0.391700 0.391701
vt 0.250000 0.528029
vt 0.000000 0.528029
vt 0.000000 0.000000
vt 1.000000 0.238419
vt 1.000000 0.766448
vt 0.750000 0.766448
vt 0.750000 0.238419
vt 0.826037 0.000000
vt 0.923963 0.000000
vt 0.500000 0.528029
vt 0.250000 0.000000
vt 0.000000 1.000000
vt 0.000000 0.766448
vt 0.250000 0.766448
vt 0.500000 0.766448
vt 0.250000 0.857930
vt 0.347925 0.766448
vt 0.423963 0.766448
vt 0.500000 0.238419
vt 0.576037 0.000000
vt 0.173962 0.766448
vt 0.076037 0.766448
vt 0.500000 0.000000
vt 0.250000 1.000000
vt 0.347925 0.857930
vt 0.326038 0.766448
vt 0.673963 0.000000
vn 0.000000 -1.000000 0.000000
vn 0.000000 1.000000 -0.000000
vn 0.294600 0.955600 0.000000
vn -0.000000 -0.000000 1.000000
vn -1.000000 -0.000000 -0.000000
vn 0.000000 0.000000 -1.000000
vn 1.000000 0.000000 0.000000
vn 0.294600 -0.000000 0.955600
vn 0.294600 0.000000 -0.955600
vn 0.294600 -0.955600 0.000000
s off
f 1/1/1 2/2/1 3/3/1
f 5/4/2 8/5/2 7/6/2
f 6/7/3 12/8/3 11/9/3
f 2/10/4 6/1/4 7/11/4
f 7/12/5 8/13/5 4/14/5
f 1/7/6 4/6/6 8/15/6
f 11/16/7 12/14/7 10/17/7
f 6/1/8 2/10/8 10/18/8
f 1/7/9 5/19/9 11/20/9
f 1/1/10 9/21/10 10/22/10
f 4/11/1 1/1/1 3/3/1
f 6/7/2 5/4/2 7/6/2
f 5/4/3 6/7/3 11/9/3
f 3/23/4 2/10/4 7/11/4
f 3/24/5 7/12/5 4/14/5
f 5/19/6 1/7/6 8/15/6
f 9/25/7 11/16/7 10/17/7
f 12/26/8 6/1/8 10/18/8
f 9/27/9 1/7/9 11/20/9
f 2/2/10 1/1/10 10/22/10
