# Blender v2.72 (sub 0) OBJ File: 'lap.blend'
# www.blender.org
o lap
v -0.805395 2.537426 -1.000000
v -0.805395 2.537426 3.525108
v -1.000000 2.537426 3.525107
v -1.000000 2.537426 -1.000000
v -0.805394 4.537426 -0.999999
v -0.805395 4.537426 3.525108
v -1.000000 4.537426 3.525107
v -1.000000 4.537426 -1.000000
v -0.805394 2.537426 -1.134746
v -0.999999 2.537426 -1.134747
v -0.805394 4.537426 -1.134746
v -1.000000 4.537426 -1.134746
v -0.805395 -0.135447 -1.000000
v -1.000000 -0.135447 -1.000000
v -0.805394 -0.135447 -1.134746
v -0.999999 -0.135447 -1.134747
v -0.805395 2.537426 3.647563
v -1.000000 2.537426 3.647562
v -0.805396 4.537426 3.647563
v -1.000001 4.537426 3.647562
v -0.805395 -0.120347 3.525108
v -1.000000 -0.120347 3.525107
v -0.805395 -0.120347 3.647563
v -1.000000 -0.120347 3.647562
vt 0.061195 0.984372
vt 0.040797 0.984372
vt 0.040797 0.505787
vt 0.979602 0.491536
vt 0.979602 0.012951
vt 1.000000 0.012951
vt 0.489801 0.491536
vt 0.489801 0.012951
vt 0.699437 0.012951
vt 0.979602 0.000000
vt 1.000000 0.000000
vt 0.000000 0.492836
vt 0.000000 0.014251
vt 0.209636 0.014251
vt 1.000000 0.491536
vt 1.000000 0.505787
vt 0.979602 0.505787
vt 0.020398 0.717311
vt 0.000000 0.717311
vt 0.000000 0.505787
vt 0.000000 0.000000
vt 0.209636 0.000000
vt 0.699437 0.491536
vt 0.699437 0.505787
vt 0.489801 0.505787
vt 0.101991 0.505787
vt 0.116115 0.505787
vt 0.116115 0.526369
vt 0.489801 0.000000
vt 0.489801 0.014251
vt 0.020398 1.000000
vt 0.000000 1.000000
vt 0.081593 0.505787
vt 0.081593 0.788476
vt 0.061195 0.788476
vt 0.020398 0.505787
vt 0.040796 0.717311
vt 0.209636 0.492836
vt 0.209636 0.505787
vt 0.699437 0.000000
vt 0.978019 0.000000
vt 0.978019 0.012951
vt 0.128950 0.526369
vt 0.488218 0.492836
vt 0.488218 0.505787
vt 0.040797 0.998403
vt 0.020398 0.998403
vt 0.101991 0.786879
vt 0.081593 0.786879
vt 0.061195 0.505787
vt 0.101991 0.526369
vt 0.128950 0.505787
vn 0.000000 -1.000000 0.000000
vn 0.000000 1.000000 0.000000
vn 1.000000 0.000000 0.000000
vn -1.000000 -0.000000 -0.000000
vn 0.000000 0.000000 -1.000000
vn -0.000000 0.000000 1.000000
s off
f 2/1/1 3/2/1 4/3/1
f 8/4/2 7/5/2 6/6/2
f 5/7/3 6/8/3 2/9/3
f 7/5/2 20/10/2 19/11/2
f 7/12/4 8/13/4 4/14/4
f 5/15/2 11/16/2 12/17/2
f 9/18/5 10/19/5 12/20/5
f 8/13/4 12/21/4 10/22/4
f 1/23/3 9/24/3 11/25/3
f 1/23/3 13/4/3 15/17/3
f 14/26/1 16/27/1 15/28/1
f 10/22/4 16/29/4 14/30/4
f 9/18/5 15/31/5 16/32/5
f 4/33/6 14/34/6 13/35/6
f 19/36/6 20/3/6 18/37/6
f 3/38/4 18/39/4 20/20/4
f 6/8/3 19/29/3 17/40/3
f 17/40/3 23/41/3 21/42/3
f 21/43/1 23/28/1 24/27/1
f 3/38/4 22/44/4 24/45/4
f 18/37/6 24/46/6 23/47/6
f 2/26/5 21/48/5 22/49/5
f 1/50/1 2/1/1 4/3/1
f 5/15/2 8/4/2 6/6/2
f 1/23/3 5/7/3 2/9/3
f 6/6/2 7/5/2 19/11/2
f 3/38/4 7/12/4 4/14/4
f 8/4/2 5/15/2 12/17/2
f 11/36/5 9/18/5 12/20/5
f 4/14/4 8/13/4 10/22/4
f 5/7/3 1/23/3 11/25/3
f 9/24/3 1/23/3 15/17/3
f 13/51/1 14/26/1 15/28/1
f 4/14/4 10/22/4 14/30/4
f 10/19/5 9/18/5 16/32/5
f 1/50/6 4/33/6 13/35/6
f 17/18/6 19/36/6 18/37/6
f 7/12/4 3/38/4 20/20/4
f 2/9/3 6/8/3 17/40/3
f 2/9/3 17/40/3 21/42/3
f 22/52/1 21/43/1 24/27/1
f 18/39/4 3/38/4 24/45/4
f 17/18/6 18/37/6 23/47/6
f 3/33/5 2/26/5 22/49/5
